<svg width="67" height="22" viewBox="0 0 67 22" fill="none" xmlns="http://www.w3.org/2000/svg">
<path fill-rule="evenodd" clip-rule="evenodd" d="M10.714 3.20904C10.9058 3.12167 11.1319 3.16403 11.2791 3.31494C11.4263 3.46586 11.463 3.6929 11.3709 3.88253L2.97641 21.165C2.85576 21.4134 2.5566 21.5169 2.30821 21.3963C2.29305 21.3889 2.27843 21.3809 2.26436 21.3723C2.24303 21.3854 2.22046 21.397 2.19669 21.4071C1.94234 21.5146 1.64899 21.3956 1.54147 21.1412C0.423291 18.4961 -0.0925384 14.768 1.53828 10.7245C1.9698 9.65462 2.78094 8.65574 3.71569 7.76987C4.65497 6.87969 5.74734 6.07726 6.77895 5.40541C7.81199 4.73262 8.79355 4.18468 9.51641 3.80505C9.87816 3.61506 10.1759 3.4668 10.384 3.36571C10.488 3.31516 10.5697 3.27637 10.6257 3.25004L10.6902 3.21996L10.7073 3.21207L10.714 3.20904C10.7141 3.20898 10.714 3.20904 10.9212 3.66408L10.714 3.20904ZM9.82726 4.77182C9.14175 5.13632 8.25344 5.6385 7.32468 6.24337C6.32324 6.89557 5.28419 7.66111 4.40356 8.49569C3.5184 9.33458 2.82115 10.2173 2.46569 11.0986C1.03939 14.6349 1.38032 17.8971 2.28347 20.3028L9.82726 4.77182Z" fill="#499A18"/>
<path fill-rule="evenodd" clip-rule="evenodd" d="M20.941 2.54099C20.6602 3.04289 20.2618 3.68941 19.7341 4.49547C17.6325 7.70552 16.6631 9.42093 16.2975 10.3133C16.2462 10.4386 16.2094 10.5416 16.1836 10.6256C16.1876 10.6248 16.1918 10.6239 16.196 10.6229C16.277 10.6053 16.3818 10.5825 16.4813 10.5696C16.5821 10.5565 16.7455 10.5428 16.9109 10.594C17.1158 10.6574 17.2942 10.8125 17.365 11.0552C17.4223 11.2514 17.393 11.4537 17.35 11.621C17.3041 11.7996 17.2238 12.0071 17.112 12.2468C16.8879 12.7275 16.5081 13.3991 15.9207 14.3338C13.4998 18.1859 10.0029 19.9749 7.13244 20.7993C5.69742 21.2115 4.41327 21.3846 3.48657 21.4548C3.02282 21.49 2.64743 21.4994 2.38598 21.5C2.25522 21.5003 2.15286 21.4983 2.08208 21.4962C2.04669 21.4952 2.01918 21.4941 1.99996 21.4933L1.9774 21.4922L1.97086 21.4919L1.9688 21.4918C1.96852 21.4918 1.96754 21.4917 1.99647 20.9925C1.61904 20.6646 1.61915 20.6645 1.61935 20.6642L1.90636 20.3347C2.09285 20.1208 2.36521 19.8089 2.70881 19.4166C3.39601 18.6319 4.36829 17.5253 5.50876 16.2374C7.78927 13.6623 10.7441 10.3605 13.4376 7.4585C16.1183 4.5703 18.5741 2.04052 19.8412 1.04014C20.0029 0.912479 20.1538 0.802795 20.2896 0.717986C20.4163 0.638876 20.5657 0.558301 20.7176 0.521724C20.7949 0.503112 20.9109 0.486299 21.0401 0.516816C21.1869 0.551497 21.322 0.641512 21.4082 0.783746C21.4846 0.909609 21.4994 1.03794 21.5 1.12491C21.5006 1.21531 21.486 1.30205 21.4679 1.37742C21.3999 1.66074 21.2133 2.05412 20.941 2.54099ZM1.99647 20.9925L1.61935 20.6642C1.49431 20.8081 1.46168 21.011 1.5357 21.1867C1.60973 21.3624 1.77722 21.4807 1.96754 21.4917L1.99647 20.9925ZM3.1091 20.4777C3.21612 20.3553 3.33371 20.2209 3.46111 20.0754C4.14734 19.2918 5.11838 18.1866 6.2574 16.9004C8.5359 14.3275 11.4848 11.0324 14.1705 8.13878C16.5302 5.59647 18.6606 3.39288 19.9562 2.24971C19.6988 2.69535 19.3496 3.25696 18.8974 3.94773C16.8017 7.14892 15.7793 8.94035 15.3722 9.93427C15.2691 10.186 15.1976 10.4047 15.1609 10.5939C15.1257 10.7749 15.1118 10.9793 15.1775 11.1722C15.2543 11.3981 15.4201 11.5502 15.6188 11.6207C15.7867 11.6802 15.9531 11.6732 16.063 11.6618C16.1423 11.6535 16.2226 11.639 16.2936 11.6246C16.2695 11.6833 16.2405 11.7497 16.2057 11.8243C16.0083 12.2476 15.6549 12.8773 15.074 13.8017C12.8215 17.3859 9.56805 19.0593 6.85638 19.8382C5.50036 20.2277 4.28553 20.3914 3.41102 20.4577C3.30521 20.4657 3.20446 20.4723 3.1091 20.4777Z" fill="#499A18"/>
<path d="M26.9264 9.84138C28.2811 9.84138 29.2837 10.0654 29.9344 10.5134C30.5957 10.9507 30.9264 11.7294 30.9264 12.8494C30.9264 13.9694 30.6011 14.86 29.9504 15.5214C29.2997 16.172 28.2491 16.4974 26.7984 16.4974H25.4544L25.4064 19.9694L26.6544 20.0814C26.6544 20.38 26.5637 20.7 26.3824 21.0414H22.7824L22.7344 20.4974C23.1824 20.3267 23.6411 20.1987 24.1104 20.1134C24.0464 15.9534 23.9931 12.86 23.9504 10.8334C23.6624 10.78 23.1931 10.652 22.5424 10.4494L22.6224 9.84138H26.9264ZM26.6384 15.4574C27.5557 15.4467 28.2544 15.2174 28.7344 14.7694C29.2144 14.3107 29.4544 13.708 29.4544 12.9614C29.4544 12.2147 29.2197 11.6974 28.7504 11.4094C28.2811 11.1107 27.5291 10.9614 26.4944 10.9614C26.3024 10.9614 25.9771 10.9667 25.5184 10.9774C25.5184 10.988 25.5024 12.4867 25.4704 15.4734L26.6384 15.4574Z" fill="black"/>
<path d="M33.9855 9.15338C34.3162 9.15338 34.5508 9.16405 34.6895 9.18538C34.6895 9.55871 34.6202 9.98538 34.4815 10.4654C34.3855 16.7587 34.3375 19.9214 34.3375 19.9534L35.6815 20.0814C35.6815 20.38 35.5908 20.7 35.4095 21.0414H31.7295L31.6815 20.4814C32.1722 20.3107 32.6522 20.1827 33.1215 20.0974L32.9615 10.4174C32.3748 10.3854 31.9055 10.3214 31.5535 10.2254L31.6175 9.39338C32.1615 9.23338 32.9508 9.15338 33.9855 9.15338Z" fill="black"/>
<path d="M42.9763 15.8094L42.8963 19.9374C43.3549 19.9694 43.8136 20.044 44.2723 20.1614L44.2403 20.7214C44.0696 20.8067 43.7603 20.9027 43.3123 21.0094C42.8749 21.1054 42.4429 21.1534 42.0163 21.1534C41.8243 20.7694 41.7176 20.4014 41.6963 20.0494C40.4803 20.8494 39.6269 21.2494 39.1363 21.2494C38.3789 21.2494 37.7709 21.0467 37.3123 20.6414C36.8536 20.236 36.6243 19.6707 36.6243 18.9454C36.6243 17.2707 37.6483 16.4067 39.6963 16.3534C40.8909 16.3214 41.4936 16.3054 41.5043 16.3054L41.4883 15.7614C41.4669 15.0254 41.3283 14.4974 41.0723 14.1774C40.8163 13.8467 40.3576 13.6814 39.6963 13.6814C39.4189 13.6814 39.1203 13.7454 38.8003 13.8734L38.4163 15.4734C38.3629 15.484 38.2723 15.4894 38.1443 15.4894L37.4883 15.4414C37.3176 14.9827 37.2269 14.348 37.2163 13.5374C37.4189 13.4307 37.8829 13.2707 38.6083 13.0574C39.3336 12.8334 39.7976 12.7214 40.0003 12.7214C41.0883 12.7214 41.8563 12.9614 42.3043 13.4414C42.7523 13.9214 42.9763 14.7107 42.9763 15.8094ZM39.4883 20.1614C39.7976 20.1614 40.5123 19.8147 41.6323 19.1214L41.5523 17.1214C40.8269 17.1854 40.2189 17.244 39.7283 17.2974C39.2376 17.3507 38.8429 17.4947 38.5443 17.7294C38.2456 17.9534 38.0963 18.3107 38.0963 18.8014C38.0963 19.708 38.5603 20.1614 39.4883 20.1614Z" fill="black"/>
<path d="M50.1613 12.7214C51.1853 12.7214 51.9266 12.9774 52.3853 13.4894C52.8439 13.9907 53.0733 14.7587 53.0733 15.7934C53.0733 16.092 53.0306 17.4787 52.9453 19.9534L54.2893 20.0814C54.2893 20.38 54.1986 20.7 54.0173 21.0414H50.3373L50.2893 20.4814C50.7799 20.3107 51.2599 20.1827 51.7293 20.0974C51.6653 17.3027 51.6066 15.7507 51.5533 15.4414C51.5106 15.1214 51.4359 14.844 51.3293 14.6094C51.2226 14.3747 51.0626 14.2094 50.8493 14.1134C50.6359 14.0174 50.3533 13.9694 50.0013 13.9694C49.2973 13.9694 48.6146 14.14 47.9533 14.4814C47.8893 16.9134 47.8466 18.7374 47.8253 19.9534L49.1693 20.0814C49.1693 20.38 49.0786 20.7 48.8973 21.0414H45.2173L45.1693 20.4814C45.6599 20.3107 46.1399 20.1827 46.6093 20.0974C46.5453 17.388 46.4919 15.3827 46.4493 14.0814C45.8626 14.0494 45.3933 13.9854 45.0413 13.8894L45.1053 13.0574C45.6813 12.8974 46.5186 12.8174 47.6173 12.8174C47.7453 13.0094 47.8413 13.2867 47.9053 13.6494C48.3639 13.404 48.8226 13.1907 49.2813 13.0094C49.7506 12.8174 50.0439 12.7214 50.1613 12.7214Z" fill="black"/>
<path d="M56.2126 20.0494L56.0846 14.0174H54.8526L54.8046 13.4574C54.9113 13.3827 55.2206 13.244 55.7326 13.0414L57.0446 10.9934C57.258 11.0147 57.4233 11.068 57.5406 11.1534L57.5246 12.9134C58.3246 12.9134 58.9806 12.9667 59.4926 13.0734C59.4926 13.3614 59.402 13.676 59.2206 14.0174H57.4926C57.4713 15.2974 57.45 17.2387 57.4286 19.8414C58.026 19.8734 58.6233 19.98 59.2206 20.1614L59.2046 20.7214C59.0553 20.8174 58.6713 20.9294 58.0526 21.0574C57.4446 21.1854 56.9433 21.2494 56.5486 21.2494C56.4953 21.164 56.426 20.9827 56.3406 20.7054C56.2553 20.4174 56.2126 20.1987 56.2126 20.0494Z" fill="black"/>
<path d="M61.9191 20.0174C62.2925 20.1774 62.7458 20.2574 63.2791 20.2574C63.8231 20.2574 64.2498 20.156 64.5591 19.9534C64.8685 19.7507 65.0231 19.4734 65.0231 19.1214C65.0231 18.7694 64.8791 18.476 64.5911 18.2414C64.3031 18.0067 63.9511 17.7987 63.5351 17.6174C63.1191 17.436 62.7031 17.244 62.2871 17.0414C61.8711 16.8387 61.5191 16.572 61.2311 16.2414C60.9431 15.9107 60.7991 15.5267 60.7991 15.0894C60.7991 14.3534 61.0445 13.7774 61.5351 13.3614C62.0258 12.9347 62.7031 12.7214 63.5671 12.7214C64.4418 12.7214 65.2631 12.9187 66.0311 13.3134C66.0418 13.42 66.0471 13.708 66.0471 14.1774C66.0471 14.636 65.9991 15.0307 65.9031 15.3614C65.6471 15.4467 65.3431 15.4894 64.9911 15.4894L64.4631 13.8574C64.2285 13.74 63.9085 13.6814 63.5031 13.6814C63.1085 13.6814 62.7938 13.788 62.5591 14.0014C62.3245 14.204 62.2071 14.4654 62.2071 14.7854C62.2071 15.0947 62.3511 15.3667 62.6391 15.6014C62.9378 15.836 63.2951 16.0494 63.7111 16.2414C64.1271 16.4227 64.5431 16.62 64.9591 16.8334C65.3751 17.036 65.7271 17.308 66.0151 17.6494C66.3138 17.98 66.4631 18.364 66.4631 18.8014C66.4631 19.5694 66.1645 20.172 65.5671 20.6094C64.9805 21.036 64.2551 21.2494 63.3911 21.2494C62.9218 21.2494 62.4205 21.1747 61.8871 21.0254C61.3538 20.8654 60.9058 20.6627 60.5431 20.4174C60.5431 19.7027 60.6071 19.068 60.7351 18.5134C60.9805 18.4707 61.3111 18.4494 61.7271 18.4494L61.9191 20.0174Z" fill="black"/>
</svg>
